<svg width="65" height="90" viewBox="0 0 65 90" fill="none" xmlns="http://www.w3.org/2000/svg">
<path d="M32.46 89.7L5.91462 82.6805L0 19.4137L65 19.4137L59.079 82.6713L32.46 89.7Z" fill="#264DE4"/>
<path d="M53.5473 78.2794L58.4999 25.2709L32.4998 25.2709V83.843L53.5473 78.2794Z" fill="#2965F1"/>
<path d="M12.9081 48.2941L13.6629 56.0505H32.5003V48.2941H12.9081ZM11.3918 32.5922L12.1566 40.3486H32.497V32.5922H11.3753H11.3918ZM32.497 68.4418H32.4605L23.0849 66.1076L22.4857 59.9195H14.0205L15.199 72.1003L32.4407 76.5216H32.4804L32.497 68.4418Z" fill="#EBEBEB"/>
<path d="M52.1034 48.2952L53.6248 32.5922H32.4998V40.3491H44.3766L43.6109 48.283H32.4998V56.0399H42.8784L41.8839 66.1099L32.4998 68.4504V76.5216L49.7764 72.1122L49.9024 70.8001L51.8912 50.3733L52.0967 48.2891L52.1034 48.2952Z" fill="white"/>
<path d="M15.2987 0L25.1532 0V4.59727L19.4178 4.59727V9.19454L25.1532 9.19454V13.7918L15.2987 13.7918V0ZM27.1407 0L36.9952 0V3.99763L31.247 3.99763V4.79715L36.9824 4.79715V13.9917L27.1247 13.9917V9.79418L32.8601 9.79418V8.99466L27.1247 8.99466V0L27.1407 0ZM38.9828 0L48.8373 0V3.99763L43.0731 3.99763V4.79715L48.8085 4.79715V13.9917L38.9508 13.9917V9.79418L44.6862 9.79418V8.99466L38.9508 8.99466V0L38.9828 0Z" fill="#E2E2E2"/>
</svg>
