<svg width="73" height="98" viewBox="0 0 73 98" fill="none" xmlns="http://www.w3.org/2000/svg">
<g filter="url(#filter0_d)">
<path d="M66 18.2237L60.0778 82.5411L33.4592 89.7L6.9144 82.5411L1 18.2237L66 18.2237Z" fill="#E44D26"/>
<path d="M33.5 84.2019L54.5549 78.4472L59.5 23.7218L33.5 23.7218V84.2019Z" fill="#F16529"/>
<path d="M21.5797 39.7346H33.496V31.9692L12.375 31.9692L12.5762 34.0533L14.6481 55.4508H33.5V47.6854H22.3522L21.5797 39.7346ZM23.4947 59.3335H15.0463L16.2251 71.5268L33.4598 75.9547H33.5V67.8518H33.4638L24.0821 65.5155L23.4947 59.3335Z" fill="#EBEBEB"/>
<path d="M33.5 55.4526H43.8734L42.8956 65.5238L33.5 67.8599V75.9547L50.7742 71.542L50.899 70.2294L52.8786 49.7866L53.0839 47.7026H33.5V55.4674V55.4526ZM33.5 39.7191V39.7376H53.8524L54.0214 37.9911L54.4238 34.0531L54.625 31.9692L33.5 31.9692V39.7154V39.7191Z" fill="white"/>
<path d="M7.05035 0L11.185 0V4.27547L14.966 4.27547V0L19.1006 0V12.9525L14.966 12.9525V8.61602L11.185 8.61602V12.9525L7.05035 12.9525V0ZM24.537 4.2958L20.8959 4.2958V0L32.3128 0V4.2958L28.6717 4.2958V12.9525L24.5409 12.9525V4.2958H24.537ZM34.1275 0L38.4409 0L41.095 4.55209L43.7452 0L48.0586 0V12.9525L43.9395 12.9525V6.5332L41.095 11.1382H41.025L38.1767 6.5332V12.9525L34.1275 12.9525V0ZM50.1142 0L54.2489 0V8.6689L60.0778 8.6689V12.9484L50.1259 12.9484V0L50.1142 0Z" fill="#E2E2E2"/>
</g>
<defs>
<filter id="filter0_d" x="0" y="0" width="73" height="97.7" filterUnits="userSpaceOnUse" color-interpolation-filters="sRGB">
<feFlood flood-opacity="0" result="BackgroundImageFix"/>
<feColorMatrix in="SourceAlpha" type="matrix" values="0 0 0 0 0 0 0 0 0 0 0 0 0 0 0 0 0 0 127 0"/>
<feOffset dx="3" dy="4"/>
<feGaussianBlur stdDeviation="2"/>
<feColorMatrix type="matrix" values="0 0 0 0 0 0 0 0 0 0 0 0 0 0 0 0 0 0 1 0"/>
<feBlend mode="normal" in2="BackgroundImageFix" result="effect1_dropShadow"/>
<feBlend mode="normal" in="SourceGraphic" in2="effect1_dropShadow" result="shape"/>
</filter>
</defs>
</svg>
