<svg width="65" height="90" viewBox="0 0 65 90" fill="none" xmlns="http://www.w3.org/2000/svg">
<path d="M65 18.2237L59.0778 82.5411L32.4592 89.7L5.9144 82.5411L0 18.2237L65 18.2237Z" fill="#E44D26"/>
<path d="M32.5 84.2019L53.5549 78.4472L58.5 23.7218L32.5 23.7218V84.2019Z" fill="#F16529"/>
<path d="M20.5797 39.7346H32.496V31.9692L11.375 31.9692L11.5762 34.0533L13.6481 55.4508H32.5V47.6854H21.3522L20.5797 39.7346ZM22.4947 59.3335H14.0463L15.2251 71.5268L32.4598 75.9547H32.5V67.8518H32.4638L23.0821 65.5155L22.4947 59.3335Z" fill="#EBEBEB"/>
<path d="M32.5 55.4526H42.8734L41.8956 65.5238L32.5 67.8599V75.9547L49.7742 71.542L49.899 70.2294L51.8786 49.7866L52.0839 47.7026H32.5V55.4674V55.4526ZM32.5 39.7191V39.7376H52.8524L53.0214 37.9911L53.4238 34.0531L53.625 31.9692L32.5 31.9692V39.7154V39.7191Z" fill="white"/>
<path d="M6.05035 0L10.185 0V4.27547L13.966 4.27547V0L18.1006 0V12.9525L13.966 12.9525V8.61602L10.185 8.61602V12.9525L6.05035 12.9525V0ZM23.537 4.2958L19.8959 4.2958V0L31.3128 0V4.2958L27.6717 4.2958V12.9525L23.5409 12.9525V4.2958H23.537ZM33.1275 0L37.4409 0L40.095 4.55209L42.7452 0L47.0586 0V12.9525L42.9395 12.9525V6.5332L40.095 11.1382H40.025L37.1767 6.5332V12.9525L33.1275 12.9525V0ZM49.1142 0L53.2489 0V8.6689L59.0778 8.6689V12.9484L49.1259 12.9484V0L49.1142 0Z" fill="#E2E2E2"/>
</svg>
