<svg width="118" height="48" viewBox="0 0 118 48" fill="none" xmlns="http://www.w3.org/2000/svg">
<g opacity="0.75" clip-path="url(#clip0)">
<path d="M8.45843 41.4095L5.75284 41.2352L6.6547 45.1563L9.72102 43.9364L8.45843 41.4095Z" fill="#FFB9B9"/>
<path d="M33.2599 34.0908L26.9468 28.1661L23.3392 30.8671L16.2145 39.1442L17.0262 40.3639L25.6841 34.7006L31.5463 42.1065L37.1379 39.4056L33.2599 34.0908Z" fill="#2F2E41"/>
<path opacity="0.1" d="M33.2599 34.0908L26.9468 28.1661L23.3392 30.8671L16.2145 39.1442L17.0262 40.3639L25.6841 34.7006L31.5463 42.1065L37.1379 39.4056L33.2599 34.0908Z" fill="black"/>
<path d="M33.801 38.0118L32.9893 38.6218L26.4057 36.4434L24.8725 35.8335L21.8061 36.4434C21.8061 36.4434 21.8061 34.0036 24.6921 34.0908L27.6683 34.7878L31.1856 35.0492L33.801 38.0118Z" fill="#FFB9B9"/>
<path d="M39.6632 44.4597L37.6791 45.6796H35.3342L24.4215 41.7585L8.45843 44.5469L8.00745 41.2357L22.6178 35.0492L35.4245 39.1445L39.6632 44.4597Z" fill="#2F2E41"/>
<path d="M26.8566 28.9509L25.5038 29.2123L25.209 28.88C24.9756 28.617 24.8278 28.2932 24.7839 27.9493C24.7401 27.6054 24.8023 27.2567 24.9627 26.9468V26.9468L28.7505 22.1544C28.7505 22.1544 29.8328 19.8018 31.5463 20.7603C33.2599 21.7187 30.1034 23.2872 30.1034 23.2872L28.2094 26.1626L28.3898 27.6439L26.8566 28.9509Z" fill="#FFB9B9"/>
<path d="M35.4244 23.2875C37.367 23.2875 38.9417 21.766 38.9417 19.8892C38.9417 18.0124 37.367 16.491 35.4244 16.491C33.4819 16.491 31.9071 18.0124 31.9071 19.8892C31.9071 21.766 33.4819 23.2875 35.4244 23.2875Z" fill="#FFB9B9"/>
<path d="M33.8461 22.3722L35.4695 26.119L39.3475 24.5505C39.3475 24.5505 38.0849 21.588 38.0849 21.5008C38.0849 21.4137 33.8461 22.3722 33.8461 22.3722Z" fill="#FFB9B9"/>
<path d="M44.5252 33.4556C44.5251 35.5063 44.1907 37.5443 43.534 39.4944L43.2707 40.2768L42.0081 45.853L40.6553 46.2015L39.6632 44.9817L37.6791 43.5877L36.2361 41.3224L34.9987 39.3306L34.6127 38.7085L33.2599 32.174L28.1192 29.3859L26.4057 29.1245L26.7664 28.1661L28.2996 26.1622L29.8328 25.9879L30.2837 25.6394L30.6445 25.8136L32.0875 25.0295L32.5384 25.2037L35.1755 25.4407L36.7772 25.1166L39.0806 23.9221L40.0239 24.0711L43.2707 26.6849C44.1007 28.8522 44.5254 31.1447 44.5252 33.4556V33.4556Z" fill="#575A89"/>
<path d="M6.58333 42.759C6.58333 42.759 7.39111 41.4363 7.04992 41.2819C6.70873 41.1275 5.25975 40.5118 5.25975 40.5118L3.13485 39.8315C3.13485 39.8315 0.0687502 35.4289 0.00144883 39.2574C-0.0658526 43.086 2.23395 44.0063 2.23395 44.0063C2.23395 44.0063 4.28509 48.2711 5.44697 47.5911C6.60885 46.911 7.77149 44.6024 7.77149 44.6024C7.77149 44.6024 5.67626 43.5142 6.58333 42.759Z" fill="#2F2E41"/>
<path opacity="0.1" d="M43.5412 32.697L40.1141 34.8754L34.9988 39.3315L34.6127 38.7093L33.5305 33.4813H33.801L36.5969 28.5146L43.5412 32.697Z" fill="black"/>
<path d="M36.5969 27.9919L33.801 32.9585H32.809L32.1777 34.7012L30.7347 35.0498L34.6127 39.1451L40.1141 34.3527L43.5412 32.1743L36.5969 27.9919Z" fill="#575A89"/>
<path d="M32.6887 17.3626L32.3076 17.5043C32.2489 17.4659 32.1988 17.4167 32.1602 17.3594C32.1215 17.3021 32.0951 17.2379 32.0824 17.1706C32.0698 17.1034 32.0711 17.0343 32.0864 16.9675C32.1017 16.9007 32.1307 16.8376 32.1716 16.7818L31.4673 16.7499C31.9194 16.1682 32.4942 15.6859 33.1536 15.3348C33.8131 14.9838 34.5422 14.772 35.2927 14.7136C36.0432 14.6551 36.7979 14.7513 37.5071 14.9958C38.2162 15.2403 38.8635 15.6274 39.4062 16.1317C39.4383 16.025 39.7878 16.2326 39.9305 16.4431C39.9784 16.2694 40.3062 17.1087 40.4221 17.7019C40.4757 17.5044 40.6821 17.8233 40.5013 18.1293C40.6159 18.1131 40.6676 18.3962 40.5789 18.5539C40.7042 18.4971 40.6831 18.835 40.5472 19.0609C40.726 19.0455 39.1371 21.4281 38.4938 22.8205C38.307 21.9913 38.0969 21.118 37.4946 20.5003C37.3922 20.3953 37.2801 20.2997 37.1682 20.2042L36.5627 19.6879C35.8587 19.0875 35.2183 18.3465 34.2805 18.1221C33.636 17.9679 33.2285 17.9331 33.5797 17.2314C33.2624 17.3594 32.966 17.5496 32.6458 17.6685C32.6501 17.5704 32.6949 17.4607 32.6887 17.3626Z" fill="#2F2E41"/>
<path d="M37.1831 20.891C37.5317 20.891 37.8144 20.6179 37.8144 20.2811C37.8144 19.9442 37.5317 19.6711 37.1831 19.6711C36.8344 19.6711 36.5518 19.9442 36.5518 20.2811C36.5518 20.6179 36.8344 20.891 37.1831 20.891Z" fill="#FFB9B9"/>
<path d="M22.5045 6.57344H19.4522V9.52249H22.5045V6.57344Z" fill="#0095F0"/>
<path d="M24.3578 7.83732H20.6513V4.25633H24.3578V7.83732ZM20.8125 7.68163H24.1966V4.41203H20.8125V7.68163Z" fill="#3F3D56"/>
<path d="M8.86652 18.5227L8.02835 15.687L5.09328 16.4967L5.93146 19.3324L8.86652 18.5227Z" fill="#0095F0"/>
<path d="M8.11744 20.5914L7.09973 17.148L10.6637 16.1648L11.6814 19.6081L8.11744 20.5914ZM7.29894 17.255L8.22815 20.3989L11.4822 19.5012L10.553 16.3572L7.29894 17.255Z" fill="#3F3D56"/>
<path d="M8.10789 5.31659L10.192 3.16199L7.96197 1.14838L5.87782 3.30298L8.10789 5.31659Z" fill="#0095F0"/>
<path d="M5.88675 5.76177L8.41751 3.14548L11.1255 5.59058L8.5947 8.20687L5.88675 5.76177ZM8.42521 3.36554L6.11452 5.75433L8.587 7.9868L10.8977 5.59801L8.42521 3.36554Z" fill="#3F3D56"/>
<path d="M111.873 0.849309H83.5108V0.284576H70.6504V0.849309H42.1716C41.9197 0.849308 41.6702 0.897247 41.4374 0.990388C41.2047 1.08353 40.9932 1.22005 40.815 1.39215C40.6369 1.56425 40.4956 1.76857 40.3992 1.99343C40.3028 2.2183 40.2531 2.4593 40.2531 2.70269V40.2214C40.2531 40.4647 40.3028 40.7058 40.3992 40.9306C40.4956 41.1555 40.6369 41.3598 40.815 41.5319C40.9932 41.704 41.2047 41.8405 41.4374 41.9337C41.6702 42.0268 41.9197 42.0747 42.1716 42.0747H111.873C112.382 42.0747 112.869 41.8795 113.229 41.5319C113.589 41.1843 113.791 40.7129 113.791 40.2214V2.70269C113.791 2.4593 113.742 2.2183 113.645 1.99343C113.549 1.76857 113.407 1.56425 113.229 1.39215C113.051 1.22005 112.84 1.08353 112.607 0.990388C112.374 0.897247 112.125 0.849308 111.873 0.849309V0.849309Z" fill="#3F3D56"/>
<path d="M111.394 4H43V41.2723H111.394V4Z" fill="#0095F0"/>
<path d="M76.9637 3.10846C77.3511 3.10846 77.6652 2.80503 77.6652 2.43073C77.6652 2.05643 77.3511 1.753 76.9637 1.753C76.5763 1.753 76.2622 2.05643 76.2622 2.43073C76.2622 2.80503 76.5763 3.10846 76.9637 3.10846Z" fill="#0095F0"/>
<path opacity="0.1" d="M91.6596 41.3974H42.8253V4.12508L91.6596 41.3974Z" fill="black"/>
<path d="M53.5268 38.609C57.1577 38.609 60.101 35.7652 60.101 32.2573C60.101 28.7493 57.1577 25.9056 53.5268 25.9056C49.896 25.9056 46.9526 28.7493 46.9526 32.2573C46.9526 35.7652 49.896 38.609 53.5268 38.609Z" fill="#F2F2F2"/>
<path d="M54.9903 37.0303C53.3729 37.0303 51.7919 36.567 50.447 35.6989C49.1022 34.8308 48.0541 33.5969 47.4351 32.1533C46.8162 30.7097 46.6542 29.1213 46.9698 27.5888C47.2853 26.0563 48.0641 24.6486 49.2078 23.5437C50.3515 22.4388 51.8086 21.6864 53.3949 21.3815C54.9813 21.0767 56.6255 21.2332 58.1198 21.8311C59.6141 22.4291 60.8913 23.4417 61.7898 24.7409C62.6884 26.0401 63.168 27.5675 63.168 29.13C63.1656 31.2246 62.3032 33.2327 60.7701 34.7137C59.237 36.1948 57.1584 37.0279 54.9903 37.0303ZM54.9903 21.333C53.3941 21.333 51.8337 21.7903 50.5064 22.6471C49.1792 23.5038 48.1447 24.7215 47.5339 26.1462C46.923 27.571 46.7632 29.1387 47.0746 30.6511C47.386 32.1636 48.1547 33.5529 49.2834 34.6433C50.4121 35.7338 51.8502 36.4764 53.4158 36.7772C54.9814 37.0781 56.6041 36.9237 58.0789 36.3335C59.5536 35.7434 60.8141 34.744 61.701 33.4618C62.5878 32.1796 63.0611 30.6721 63.0611 29.13C63.0587 27.0629 62.2076 25.081 60.6946 23.6193C59.1815 22.1576 57.1301 21.3354 54.9903 21.333V21.333Z" fill="#3F3D56"/>
<path d="M99.3106 24.226H92.9218V25.5158H99.3106V24.226Z" fill="#3F3D56"/>
<path d="M107.034 14.185H85.1982V14.7378H107.034V14.185Z" fill="#3F3D56"/>
<path d="M107.034 15.9353H85.1982V16.488H107.034V15.9353Z" fill="#3F3D56"/>
<path d="M107.034 17.6855H85.1982V18.2383H107.034V17.6855Z" fill="#3F3D56"/>
<path d="M107.034 19.4358H85.1982V19.9886H107.034V19.4358Z" fill="#3F3D56"/>
<path d="M107.034 21.1861H85.1982V21.7388H107.034V21.1861Z" fill="#3F3D56"/>
<path d="M107.034 4.8813H104.364V7.46085H107.034V4.8813Z" fill="#F2F2F2"/>
<path d="M108.274 8.6585H105.032V5.52618H108.274V8.6585ZM105.173 8.52231H108.133V5.66238H105.173V8.52231Z" fill="#3F3D56"/>
<path d="M115.711 40.7194H109.037V40.2548C109.037 40.2427 109.034 40.2307 109.029 40.2195C109.025 40.2084 109.018 40.1982 109.009 40.1896C109 40.1811 108.989 40.1743 108.978 40.1697C108.966 40.165 108.954 40.1627 108.941 40.1627H106.653C106.64 40.1627 106.628 40.165 106.616 40.1697C106.605 40.1743 106.594 40.1811 106.585 40.1896C106.577 40.1982 106.57 40.2084 106.565 40.2195C106.56 40.2307 106.557 40.2427 106.557 40.2548V40.7194H105.127V40.2548C105.127 40.2427 105.125 40.2307 105.12 40.2195C105.115 40.2084 105.108 40.1982 105.099 40.1896C105.09 40.1811 105.08 40.1743 105.068 40.1697C105.057 40.165 105.044 40.1627 105.032 40.1627H102.743C102.731 40.1627 102.718 40.165 102.707 40.1697C102.695 40.1743 102.685 40.1811 102.676 40.1896C102.667 40.1982 102.66 40.2084 102.655 40.2195C102.65 40.2307 102.648 40.2427 102.648 40.2548V40.7194H101.218V40.2548C101.218 40.2427 101.215 40.2307 101.21 40.2195C101.206 40.2084 101.199 40.1982 101.19 40.1896C101.181 40.1811 101.17 40.1743 101.159 40.1697C101.147 40.165 101.135 40.1627 101.122 40.1627H98.8338C98.8213 40.1627 98.8089 40.165 98.7973 40.1697C98.7857 40.1743 98.7752 40.1811 98.7664 40.1896C98.7575 40.1982 98.7505 40.2084 98.7457 40.2195C98.7409 40.2307 98.7384 40.2427 98.7384 40.2548V40.7194H97.3081V40.2548C97.3081 40.2427 97.3057 40.2307 97.3009 40.2195C97.2961 40.2084 97.2891 40.1982 97.2802 40.1896C97.2713 40.1811 97.2608 40.1743 97.2493 40.1697C97.2377 40.165 97.2253 40.1627 97.2128 40.1627H94.9243C94.9117 40.1627 94.8993 40.165 94.8878 40.1697C94.8762 40.1743 94.8657 40.1811 94.8568 40.1896C94.848 40.1982 94.841 40.2084 94.8362 40.2195C94.8314 40.2307 94.8289 40.2427 94.8289 40.2548V40.7194H93.3986V40.2548C93.3986 40.2427 93.3961 40.2307 93.3913 40.2195C93.3865 40.2084 93.3795 40.1982 93.3707 40.1896C93.3618 40.1811 93.3513 40.1743 93.3397 40.1697C93.3282 40.165 93.3158 40.1627 93.3032 40.1627H91.0147C91.0022 40.1627 90.9898 40.165 90.9783 40.1697C90.9667 40.1743 90.9562 40.1811 90.9473 40.1896C90.9385 40.1982 90.9314 40.2084 90.9266 40.2195C90.9219 40.2307 90.9194 40.2427 90.9194 40.2548V40.7194H89.4891V40.2548C89.4891 40.2427 89.4866 40.2307 89.4818 40.2195C89.477 40.2084 89.47 40.1982 89.4611 40.1896C89.4523 40.1811 89.4418 40.1743 89.4302 40.1697C89.4186 40.165 89.4062 40.1627 89.3937 40.1627H87.1052C87.0927 40.1627 87.0803 40.165 87.0687 40.1697C87.0572 40.1743 87.0466 40.1811 87.0378 40.1896C87.0289 40.1982 87.0219 40.2084 87.0171 40.2195C87.0123 40.2307 87.0099 40.2427 87.0099 40.2548V40.7194H85.5796V40.2548C85.5796 40.2427 85.5771 40.2307 85.5723 40.2195C85.5675 40.2084 85.5605 40.1982 85.5516 40.1896C85.5428 40.1811 85.5323 40.1743 85.5207 40.1697C85.5091 40.165 85.4967 40.1627 85.4842 40.1627H67.5576C67.5451 40.1627 67.5327 40.165 67.5211 40.1697C67.5095 40.1743 67.499 40.1811 67.4902 40.1896C67.4813 40.1982 67.4743 40.2084 67.4695 40.2195C67.4647 40.2307 67.4623 40.2427 67.4623 40.2548V40.7194H66.0319V40.2548C66.0319 40.2427 66.0295 40.2307 66.0247 40.2195C66.0199 40.2084 66.0129 40.1982 66.004 40.1896C65.9952 40.1811 65.9846 40.1743 65.9731 40.1697C65.9615 40.165 65.9491 40.1627 65.9366 40.1627H63.6481C63.6356 40.1627 63.6232 40.165 63.6116 40.1697C63.6 40.1743 63.5895 40.1811 63.5807 40.1896C63.5718 40.1982 63.5648 40.2084 63.56 40.2195C63.5552 40.2307 63.5527 40.2427 63.5527 40.2548V40.7194H62.1224V40.2548C62.1224 40.2427 62.12 40.2307 62.1152 40.2195C62.1104 40.2084 62.1033 40.1982 62.0945 40.1896C62.0856 40.1811 62.0751 40.1743 62.0636 40.1697C62.052 40.165 62.0396 40.1627 62.0271 40.1627H59.7386C59.726 40.1627 59.7136 40.165 59.7021 40.1697C59.6905 40.1743 59.68 40.1811 59.6711 40.1896C59.6623 40.1982 59.6553 40.2084 59.6505 40.2195C59.6457 40.2307 59.6432 40.2427 59.6432 40.2548V40.7194H58.2129V40.2548C58.2129 40.2427 58.2104 40.2307 58.2056 40.2195C58.2008 40.2084 58.1938 40.1982 58.185 40.1896C58.1761 40.1811 58.1656 40.1743 58.154 40.1697C58.1425 40.165 58.1301 40.1627 58.1175 40.1627H55.829C55.8165 40.1627 55.8041 40.165 55.7925 40.1697C55.781 40.1743 55.7705 40.1811 55.7616 40.1896C55.7528 40.1982 55.7457 40.2084 55.7409 40.2195C55.7362 40.2307 55.7337 40.2427 55.7337 40.2548V40.7194H54.3034V40.2548C54.3034 40.2427 54.3009 40.2307 54.2961 40.2195C54.2913 40.2084 54.2843 40.1982 54.2754 40.1896C54.2666 40.1811 54.2561 40.1743 54.2445 40.1697C54.2329 40.165 54.2205 40.1627 54.208 40.1627H51.9195C51.907 40.1627 51.8946 40.165 51.883 40.1697C51.8715 40.1743 51.8609 40.1811 51.8521 40.1896C51.8432 40.1982 51.8362 40.2084 51.8314 40.2195C51.8266 40.2307 51.8242 40.2427 51.8242 40.2548V40.7194H50.3938V40.2548C50.3938 40.2427 50.3914 40.2307 50.3866 40.2195C50.3818 40.2084 50.3748 40.1982 50.3659 40.1896C50.3571 40.1811 50.3466 40.1743 50.335 40.1697C50.3234 40.165 50.311 40.1627 50.2985 40.1627H48.01C47.9975 40.1627 47.9851 40.165 47.9735 40.1697C47.9619 40.1743 47.9514 40.1811 47.9426 40.1896C47.9337 40.1982 47.9267 40.2084 47.9219 40.2195C47.9171 40.2307 47.9146 40.2427 47.9146 40.2548V40.7194H46.4843V40.2548C46.4843 40.2427 46.4819 40.2307 46.4771 40.2195C46.4723 40.2084 46.4653 40.1982 46.4564 40.1896C46.4475 40.1811 46.437 40.1743 46.4255 40.1697C46.4139 40.165 46.4015 40.1627 46.389 40.1627H44.1005C44.0879 40.1627 44.0756 40.165 44.064 40.1697C44.0524 40.1743 44.0419 40.1811 44.033 40.1896C44.0242 40.1982 44.0172 40.2084 44.0124 40.2195C44.0076 40.2307 44.0051 40.2427 44.0051 40.2548V40.7194H39.6188C39.0119 40.7194 38.4298 40.9524 38.0006 41.367C37.5714 41.7817 37.3303 42.3441 37.3303 42.9305V43.9302C37.3303 44.5167 37.5714 45.079 38.0006 45.4937C38.4298 45.9083 39.0119 46.1413 39.6188 46.1413H115.711C116.318 46.1413 116.901 45.9083 117.33 45.4937C117.759 45.079 118 44.5167 118 43.9302V42.9305C118 42.3441 117.759 41.7817 117.33 41.367C116.901 40.9524 116.318 40.7194 115.711 40.7194V40.7194Z" fill="#3F3D56"/>
</g>
<rect x="52" y="9" width="51" height="5" rx="2.5" fill="#28375C"/>
<rect x="52" y="20" width="51" height="5" rx="2.5" fill="#28375C"/>
<rect x="52" y="31" width="51" height="5" rx="2.5" fill="#28375C"/>
<defs>
<clipPath id="clip0">
<rect width="118" height="47.3792" fill="white" transform="translate(0 0.284576)"/>
</clipPath>
</defs>
</svg>
